<svg width="40" height="40" viewBox="0 0 40 40" fill="none" xmlns="http://www.w3.org/2000/svg">
<path d="M30 3.33331H10C9.55801 3.33331 9.13409 3.50891 8.82153 3.82147C8.50897 4.13403 8.33337 4.55795 8.33337 4.99998V20L16.6667 13.3333V18.3333H26.6667V21.6666H16.6667V26.6666L8.33337 20V35C8.33337 35.442 8.50897 35.8659 8.82153 36.1785C9.13409 36.4911 9.55801 36.6666 10 36.6666H30C30.4421 36.6666 30.866 36.4911 31.1786 36.1785C31.4911 35.8659 31.6667 35.442 31.6667 35V4.99998C31.6667 4.55795 31.4911 4.13403 31.1786 3.82147C30.866 3.50891 30.4421 3.33331 30 3.33331Z" fill="#F36F21"/>
</svg>
