<svg width="150" height="150" viewBox="0 0 150 150" fill="none" xmlns="http://www.w3.org/2000/svg">
<path d="M75 1.875C55.356 1.875 39.375 17.856 39.375 37.5C39.375 45.3975 43.269 54.1616 47.0366 62.6357C50.6434 70.7526 54.375 79.1475 54.375 86.25V97.5C54.375 108.872 63.6279 118.125 75 118.125C86.3721 118.125 95.625 108.872 95.625 97.5V86.25C95.625 79.1475 99.354 70.7529 102.963 62.6357C106.731 54.1614 110.625 45.3975 110.625 37.5C110.625 17.856 94.644 1.875 75 1.875ZM91.875 97.5C91.875 98.1336 91.834 98.7581 91.7645 99.375H58.2352C58.1657 98.7581 58.1247 98.1336 58.1247 97.5V95.6283H91.8747L91.875 97.5ZM75 114.375C67.6708 114.375 61.4346 109.669 59.1094 103.125H90.8901C88.5673 109.669 82.3305 114.375 74.9996 114.375H75ZM91.875 91.8793H58.125V88.1259H91.875V91.8793ZM99.5366 61.1143C96.0662 68.9239 92.4844 76.9789 91.9444 84.375H84.5717L88.1158 48.9364C88.2187 47.9052 87.4671 46.9861 86.4358 46.8831C85.397 46.7819 84.488 47.5335 84.3825 48.5631L80.8033 84.3745H69.1968L65.6158 48.5631C65.5129 47.5335 64.603 46.7835 63.5625 46.8831C62.533 46.9861 61.7813 47.9052 61.8826 48.9364L65.4267 84.375H58.0539C57.5124 76.9779 53.9324 68.9231 50.4618 61.1143C46.8567 52.9991 43.1251 44.6042 43.1251 37.5021C43.1251 19.9258 57.4237 5.62714 75.0001 5.62714C92.5764 5.62714 106.875 19.9258 106.875 37.5021C106.875 44.6046 103.146 52.9993 99.5367 61.1164L99.5366 61.1143ZM91.8767 39.375C91.8767 40.4096 91.0388 41.25 90.0017 41.25H83.4392L78.375 48.0017C78.0184 48.478 77.4618 48.7517 76.875 48.7517C76.7871 48.7517 76.6984 48.7459 76.6088 48.7333C75.9316 48.6362 75.3599 48.1783 75.1197 47.5355L71.0039 36.5591L69.1758 40.2138C68.8594 40.8491 68.209 41.25 67.5 41.25H60C58.9654 41.25 58.125 40.4096 58.125 39.375C58.125 38.3404 58.9654 37.5 60 37.5H66.3416L69.5743 31.0372C69.9083 30.3717 70.583 29.9649 71.3497 30.0043C72.0939 30.0436 72.7467 30.5199 73.0071 31.2172L77.4301 43.0147L81.0036 38.2502C81.356 37.7781 81.9126 37.5002 82.5036 37.5002H90.0036C91.039 37.5002 91.8769 38.3406 91.8769 39.3752L91.8767 39.375Z" fill="white"/>
</svg>
