<svg width="35" height="35" viewBox="0 0 35 35" fill="none" xmlns="http://www.w3.org/2000/svg">
<path d="M30.0415 2.33341C30.0408 2.10157 29.9482 1.87951 29.7843 1.71566C29.6205 1.55181 29.3984 1.45922 29.1666 1.45844H24.5C24.1873 1.45844 23.8984 1.62523 23.7422 1.89593C23.5859 2.16664 23.5859 2.50023 23.7422 2.77093C23.8984 3.04164 24.1873 3.20844 24.5 3.20844H27.0543L21.5483 8.71444C21.3832 8.8783 21.2901 9.10116 21.2897 9.33379C21.2893 9.5664 21.3815 9.78965 21.5459 9.95409C21.7104 10.1185 21.9336 10.2107 22.1662 10.2103C22.3988 10.2099 22.6217 10.1168 22.7856 9.95174L28.2916 4.44574V7.00004C28.2916 7.31273 28.4584 7.60159 28.7291 7.75784C28.9998 7.91409 29.3334 7.91409 29.6041 7.75784C29.8748 7.60159 30.0416 7.31272 30.0416 7.00004L30.0415 2.33341Z" fill="white"/>
<path d="M16.9165 26.5415C19.8513 26.5421 22.6835 25.4632 24.8745 23.5105C27.0653 21.5575 28.4612 18.8673 28.7966 15.9515C29.1319 13.036 28.3833 10.099 26.6931 7.69946L23.6132 10.7796C23.0964 11.2964 22.3431 11.4981 21.637 11.3091C20.931 11.1198 20.3796 10.5685 20.1903 9.86236C20.0012 9.15631 20.203 8.40296 20.7198 7.88621L23.7997 4.80611C21.7433 3.35826 19.2825 2.59556 16.7677 2.62681C14.2527 2.65806 11.8117 3.48131 9.7917 4.97991C7.7716 6.47836 6.2755 8.57561 5.5163 10.9734C4.7569 13.3713 4.77295 15.9474 5.562 18.3354C6.35125 20.7235 7.87335 22.802 9.9118 24.2754C11.9503 25.7485 14.4015 26.5414 16.9163 26.5412L16.9165 26.5415ZM16.9165 15.4582C15.9892 15.4613 15.1167 15.0182 14.5722 14.2672C14.0276 13.5164 13.8776 12.5495 14.1686 11.6688C14.4598 10.7883 15.1567 10.1014 16.0415 9.82305V9.0414C16.0415 8.7289 16.2083 8.44005 16.479 8.2838C16.7497 8.12736 17.0833 8.12736 17.354 8.2838C17.6247 8.44005 17.7915 8.72892 17.7915 9.0414V9.82305C18.376 10.0055 18.8872 10.3698 19.2503 10.8631C19.6134 11.3563 19.8095 11.9524 19.8098 12.5649C19.8098 12.8774 19.643 13.1662 19.3723 13.3227C19.1016 13.4789 18.768 13.4789 18.4973 13.3227C18.2266 13.1662 18.0598 12.8773 18.0598 12.5649C18.0598 12.2615 17.9393 11.9707 17.7251 11.7563C17.5106 11.542 17.2198 11.4215 16.9165 11.4215C16.6133 11.4215 16.3225 11.542 16.1081 11.7563C15.8936 11.9707 15.7731 12.2615 15.7731 12.5649C15.7731 12.868 15.8936 13.1588 16.1081 13.3733C16.3225 13.5877 16.6133 13.7082 16.9165 13.7082C17.844 13.7051 18.7165 14.1483 19.261 14.899C19.8054 15.65 19.9556 16.6168 19.6643 17.4975C19.3733 18.3781 18.6762 19.0649 17.7915 19.3432V20.1248C17.7915 20.4375 17.6247 20.7264 17.354 20.8826C17.0833 21.0389 16.7497 21.0389 16.479 20.8826C16.2083 20.7264 16.0415 20.4375 16.0415 20.1248V19.3432C15.4569 19.1607 14.946 18.7965 14.5829 18.3033C14.2198 17.8101 14.0237 17.2139 14.0231 16.6016C14.0231 16.2889 14.1899 16 14.4606 15.8438C14.7315 15.6873 15.0649 15.6873 15.3356 15.8438C15.6065 16 15.7731 16.2889 15.7731 16.6016C15.7731 16.9047 15.8937 17.1955 16.1081 17.41C16.3226 17.6244 16.6134 17.7447 16.9165 17.7447C17.2198 17.7447 17.5107 17.6244 17.7251 17.41C17.9394 17.1955 18.0599 16.9047 18.0599 16.6016C18.0599 16.2982 17.9394 16.0074 17.7251 15.793C17.5106 15.5785 17.2199 15.4582 16.9165 15.4582Z" fill="white"/>
</svg>
