<svg width="150" height="150" viewBox="0 0 150 150" fill="none" xmlns="http://www.w3.org/2000/svg">
<path fill-rule="evenodd" clip-rule="evenodd" d="M49.2 46.875L48.2433 41.8687C48.1738 41.4242 48.2659 40.9697 48.5036 40.588C48.7405 40.2054 49.108 39.9217 49.5374 39.7877C66.3462 34.4248 84.3952 34.3468 101.249 39.5626C101.654 39.7208 101.991 40.0154 102.203 40.3946C102.416 40.7746 102.489 41.2157 102.411 41.6435L101.249 47.1003C101.165 47.5556 101.253 48.026 101.495 48.4203C101.738 48.8154 102.117 49.1067 102.561 49.2373L118.124 52.8375C119.005 53.0467 119.933 52.9153 120.721 52.47C121.51 52.0255 122.102 51.2998 122.38 50.4376C128.173 32.2317 114.111 28.6684 114.111 28.6684C93.7304 18.8614 50.3245 21.787 34.9666 28.6684C22.1982 34.3872 26.6045 47.7934 28.4795 52.1434C28.657 52.5317 28.9625 52.8473 29.3442 53.0382C29.7268 53.229 30.162 53.2843 30.5789 53.1939L47.8482 48.975C48.2918 48.852 48.6743 48.5699 48.9229 48.1823C49.1724 47.7948 49.2703 47.3294 49.1983 46.8748L49.2 46.875ZM42.656 97.6307H106.575C107.57 97.6307 108.523 97.2356 109.226 96.5325C109.93 95.8294 110.325 94.876 110.325 93.8807V83.7189C110.399 80.7949 109.754 77.8989 108.446 75.2831C107.139 72.6673 105.208 70.413 102.825 68.7189C100.24 66.997 98.0935 64.6952 96.5566 61.9965C95.0198 59.2969 94.1358 56.2762 93.9751 53.1748V47.0627C93.9751 46.5655 93.7776 46.0884 93.426 45.7368C93.0745 45.3853 92.5973 45.1877 92.1001 45.1877H86.8308C86.4634 45.1877 86.1034 45.2965 85.7962 45.4999C85.4899 45.7033 85.2496 45.9921 85.1065 46.3311C84.2979 48.3342 82.9092 50.0501 81.118 51.2589C79.3275 52.4676 77.2165 53.1129 75.0561 53.1129C72.8957 53.1129 70.7845 52.4676 68.9942 51.2589C67.2037 50.0501 65.815 48.3343 65.0065 46.3311C64.8701 45.9787 64.6315 45.6757 64.3201 45.4614C64.0088 45.2472 63.6404 45.1325 63.2629 45.1308H58.125C57.6278 45.1308 57.1507 45.3283 56.7991 45.6799C56.4475 46.0323 56.25 46.5086 56.25 47.0058V52.6308C56.25 52.6308 55.9503 63.4119 47.9623 67.5003C45.3966 68.7232 43.2028 70.6091 41.6083 72.962C40.0129 75.3149 39.0737 78.0504 38.8879 80.8871V93.8439C38.8829 94.3411 38.9767 94.8342 39.1642 95.2945C39.3517 95.7549 39.6287 96.1735 39.9795 96.5258C40.3302 96.8782 40.747 97.1578 41.2066 97.3478C41.667 97.537 42.1591 97.6333 42.6564 97.6308L42.656 97.6307ZM74.606 87.8254C81.5225 87.8254 87.1308 82.2172 87.1308 75.2998C87.1308 68.3824 81.5225 62.775 74.606 62.775C67.6886 62.775 62.0803 68.3824 62.0803 75.2998C62.0803 82.2172 67.6886 87.8254 74.606 87.8254Z" fill="white"/>
</svg>
