<svg width="36" height="36" viewBox="0 0 36 36" fill="none" xmlns="http://www.w3.org/2000/svg">
<path d="M21.6249 18C21.6249 20.154 19.9275 21.8999 17.8333 21.8999C15.7392 21.8999 14.0417 20.154 14.0417 18C14.0417 15.846 15.7392 14.1001 17.8333 14.1001C19.9275 14.1001 21.6249 15.846 21.6249 18Z" fill="white"/>
<path d="M30.1884 12.708L21.5434 3.81601C20.5606 2.80189 19.2257 2.23175 17.8335 2.23175C16.4413 2.23175 15.1063 2.80189 14.1235 3.81601L5.47852 12.708C5.10703 13.0847 4.93127 13.6207 5.00508 14.152C5.07871 14.6834 5.39316 15.1471 5.85253 15.402C6.31171 15.6567 6.86133 15.6724 7.33358 15.444V21.6C7.33358 22.873 7.82518 24.0939 8.70038 24.9941C9.57558 25.8943 10.7625 26.3999 12.0002 26.3999H23.6672C24.9049 26.3999 26.0918 25.8943 26.967 24.9941C27.8422 24.0939 28.3338 22.873 28.3338 21.6V15.444C28.806 15.6724 29.3557 15.6567 29.8148 15.402C30.2742 15.1471 30.5887 14.6834 30.6623 14.152C30.7361 13.6207 30.5603 13.0847 30.1888 12.708H30.1884ZM17.8334 23.6998C16.3637 23.6998 14.9541 23.0994 13.9149 22.0304C12.8756 20.9615 12.2918 19.5116 12.2918 17.9999C12.2918 16.4882 12.8756 15.0383 13.9149 13.9694C14.9541 12.9005 16.3637 12.3 17.8334 12.3C19.3031 12.3 20.7127 12.9005 21.752 13.9694C22.7912 15.0383 23.375 16.4882 23.375 17.9999C23.375 19.5116 22.7912 20.9615 21.752 22.0304C20.7127 23.0994 19.3031 23.6998 17.8334 23.6998Z" fill="white"/>
</svg>
