<svg width="35" height="35" viewBox="0 0 35 35" fill="none" xmlns="http://www.w3.org/2000/svg">
<path d="M10.3895 13.984H12.4282V20.6095H10.3895V13.984Z" fill="white"/>
<path d="M9.14398 23.158H7.84143V24.6869H27.2084V23.158H9.14398Z" fill="white"/>
<path d="M16.5055 13.984H18.5441V20.6095H16.5055V13.984Z" fill="white"/>
<path d="M13.4475 13.474V11.4351H9.37012V13.474H13.4475Z" fill="white"/>
<path d="M25.6511 21.119H9.39856V22.6479H25.6511V21.119Z" fill="white"/>
<path d="M19.5636 13.474V11.4351H15.4862V13.474H19.5636Z" fill="white"/>
<path d="M22.6215 13.984H24.6601V20.6095H22.6215V13.984Z" fill="white"/>
<path d="M26.9535 8.88699H28.4377L17.4677 3.31299C15.4031 4.41144 13.5546 5.33524 11.7657 6.22919C10.9612 6.63134 10.1745 7.02449 9.38271 7.42589H12.1733C12.3139 7.42589 12.4282 7.53995 12.4282 7.68077C12.4282 7.8214 12.3141 7.93566 12.1733 7.93566L8.60556 7.93546C8.5538 7.93546 8.50595 7.91984 8.46571 7.89328C7.84306 8.213 7.21221 8.54133 6.56201 8.88663H8.09581L26.9535 8.88699ZM17.525 4.80964C18.3682 4.80964 19.0541 5.49559 19.0541 6.33874C19.0541 7.18169 18.3682 7.86784 17.525 7.86784C16.6821 7.86784 15.9961 7.18189 15.9961 6.33874C15.9961 5.49559 16.6821 4.80964 17.525 4.80964Z" fill="white"/>
<path d="M25.6795 11.4355H21.6022V13.4743H25.6795V11.4355Z" fill="white"/>
<path d="M17.525 7.35798C18.0871 7.35798 18.5443 6.90075 18.5443 6.33862C18.5443 5.77652 18.0871 5.31927 17.525 5.31927C16.9629 5.31927 16.5056 5.7765 16.5056 6.33862C16.5056 6.90073 16.963 7.35798 17.525 7.35798Z" fill="white"/>
<path d="M26.699 10.926V9.39709H8.34751L8.32642 10.926H26.699Z" fill="white"/>
</svg>
