<svg width="150" height="150" viewBox="0 0 150 150" fill="none" xmlns="http://www.w3.org/2000/svg">
<path d="M42.2401 83.28C41.7605 82.8004 40.9201 82.8004 40.3199 83.28C37.3199 86.1602 27.8403 95.7596 27.8403 103.8C27.8403 113.401 34.8003 117.12 41.2801 117.12C47.7599 117.12 54.7199 113.401 54.7199 103.8C54.7199 95.64 45.3599 86.1596 42.2403 83.28H42.2401ZM41.6399 112.92C36.9599 112.92 32.1604 109.44 32.1604 102.96C32.1604 102 32.8802 101.28 33.8403 101.28C34.8004 101.28 35.5203 102 35.5203 102.96C35.5203 107.52 38.6401 109.56 41.6401 109.56C42.6002 109.56 43.32 110.28 43.32 111.24C43.32 112.2 42.4795 112.92 41.6399 112.92Z" fill="white"/>
<path d="M123.96 30.96H107.28C104.64 27 100.56 24 95.8802 22.6798V14.5202H102.84C105.96 14.5202 108.6 11.8802 108.6 8.76044C108.6 5.64065 105.96 3.00065 102.84 3.00065L77.4002 2.99982C74.2804 2.99982 71.6404 5.63982 71.6404 8.7596C71.6404 11.8794 74.2804 14.5194 77.4002 14.5194H84.3602V22.679C79.6802 23.999 75.6004 26.999 72.9604 30.9592H69.6004C49.5604 30.9592 33.0004 45.8394 30.2404 65.0392H26.04C24.2404 65.0392 22.7998 66.4789 22.7998 68.2794V73.439C22.7998 75.2386 24.2395 76.6792 26.04 76.6792H56.64C58.4397 76.6792 59.8802 75.2394 59.8802 73.439V68.2794C59.8802 66.4797 58.4405 65.0392 56.64 65.0392H53.8802C56.1604 58.6792 62.1604 54.2396 69.2402 54.119H72.8404C76.5602 59.6394 82.9202 63.2388 90 63.2388C97.0798 63.2388 103.44 59.6385 107.16 54.119H123.84C125.639 54.119 127.08 52.6792 127.08 50.8787V34.1987C127.2 32.3999 125.76 30.9602 123.96 30.9602V30.96Z" fill="white"/>
</svg>
