<svg width="35" height="35" viewBox="0 0 35 35" fill="none" xmlns="http://www.w3.org/2000/svg">
<path d="M19.1625 19.1625H14.7875C14.2625 19.1625 13.9125 18.8125 13.9125 18.2875C13.9125 17.7625 14.2625 17.4125 14.7875 17.4125H19.1625C19.6875 17.4125 20.0375 17.7625 20.0375 18.2875C20.0375 18.8125 19.6875 19.1625 19.1625 19.1625Z" fill="white"/>
<path d="M27.65 20.825H25.9V20.7375V7.52502C25.9 6.30002 25.4625 5.07502 24.5875 4.20002C23.5375 3.06252 21.9625 2.36252 20.3 2.36252H11.4625C10.9375 2.27502 10.325 2.36252 9.88748 2.62502C9.71248 2.71252 9.62498 2.80002 9.44998 2.88752C8.48748 3.50002 7.78748 4.63752 7.78748 5.95002V9.36252C7.78748 9.88752 8.13748 10.2375 8.66248 10.2375H10.5875V22.4875C10.5875 23.8875 11.375 25.1125 12.5125 25.8125C12.6 25.8125 12.6 25.9 12.6875 25.9H12.775C13.2125 26.1625 13.7375 26.25 14.35 26.25H24.85H25.2C27.0375 26.075 28.525 24.675 28.525 23.0125V21.7C28.525 21.175 28.175 20.825 27.65 20.825ZM10.5875 8.48752H9.53748V5.95002C9.53748 5.42502 9.71248 4.98752 10.0625 4.63752C10.4125 4.98752 10.5875 5.51252 10.5875 6.03752V8.48752ZM20.3 4.02502C21.525 4.02502 22.575 4.55002 23.3625 5.33752C23.8875 5.95002 24.2375 6.65002 24.2375 7.43752V20.7375V20.825H14.9625H14.7H14.4375C14 20.825 13.5625 21.2625 13.5625 21.7V22.75C13.5625 23.275 13.3 23.7125 12.95 24.0625C12.5125 23.7125 12.25 23.1 12.25 22.4875V5.95002C12.25 5.25002 12.075 4.55002 11.725 4.02502H20.3ZM26.775 23.0125C26.775 23.8 25.9 24.5 24.85 24.5H14.875C15.225 23.975 15.4 23.3625 15.4 22.6625V22.4875H26.775V23.0125Z" fill="white"/>
<path d="M20.9125 16.5375H14.7875C14.2625 16.5375 13.9125 16.1875 13.9125 15.6625C13.9125 15.1375 14.2625 14.7875 14.7875 14.7875H20.9125C21.4375 14.7875 21.7875 15.1375 21.7875 15.6625C21.7875 16.1875 21.4375 16.5375 20.9125 16.5375Z" fill="white"/>
<path d="M20.3874 10.5875C20.3874 11.6375 19.7749 12.425 18.8124 12.6875H18.7249H18.6374V13.125C18.6374 13.65 18.2874 14 17.7624 14C17.2374 14 16.8874 13.65 16.8874 13.125V12.8625C16.0999 12.775 15.3124 12.425 15.1374 11.55C15.0499 11.1125 15.3124 10.5875 15.8374 10.5C16.2749 10.4125 16.6249 10.675 16.7999 11.025C17.0624 11.1125 17.7624 11.1125 18.3749 11.025C18.6374 10.9375 18.6374 10.7625 18.6374 10.675C18.6374 10.5875 18.6374 10.4125 18.3749 10.325H17.1499H17.0624H16.9749H16.7999C15.7499 10.15 15.0499 9.275 15.0499 8.225C15.0499 7.175 15.6624 6.3 16.6249 6.0375H16.7124V5.6875C16.7124 5.1625 17.0624 4.8125 17.5874 4.8125C18.0249 4.8125 18.4624 5.1625 18.4624 5.6875V5.95C19.2499 6.0375 20.0374 6.3875 20.2124 7.2625C20.2999 7.7 20.0374 8.225 19.5124 8.3125C19.0749 8.4 18.6374 8.1375 18.5499 7.7875C18.2874 7.7 17.5874 7.7 16.9749 7.7875C16.7124 7.875 16.7124 8.05 16.7124 8.225C16.7124 8.3125 16.7124 8.575 16.9749 8.6625H18.2874H18.4624C19.5999 8.75 20.2999 9.5375 20.3874 10.5875Z" fill="white"/>
</svg>
