<svg width="150" height="150" viewBox="0 0 150 150" fill="none" xmlns="http://www.w3.org/2000/svg">
<path d="M85.1741 105.313C81.2409 106.348 77.1911 106.873 73.1239 106.875C66.0191 106.875 59.0263 96.276 55.6614 80.7534C61.2109 78.5152 67.1398 77.3709 73.1239 77.3818C75.9054 77.6857 78.8152 77.067 78.9909 73.7724C79.0235 70.4192 75.9071 69.6281 73.1239 69.8818C66.7213 69.8743 60.3682 71.0076 54.363 73.2274C53.7921 68.8412 53.5075 64.4233 53.5117 60.0002C53.5067 55.5789 53.7854 51.1618 54.3471 46.7756C60.3604 48.9879 66.7172 50.1204 73.1239 50.1204C79.5282 50.1204 85.8822 48.9887 91.894 46.7779C92.4599 51.1933 92.742 55.6414 92.7361 60.0939C92.7721 61.4206 93.5062 62.6293 94.6663 63.273C95.8273 63.9167 97.2421 63.8991 98.3861 63.227C99.5304 62.554 100.234 61.3269 100.236 60C99.7564 34.9972 95.0137 50.0098 111.957 33.7736C117.208 41.5113 120.01 50.6486 119.999 60C119.997 62.589 119.782 65.1731 119.356 67.727C119.192 68.708 119.425 69.7141 120.003 70.5236C120.58 71.333 121.457 71.8796 122.438 72.0429C128.438 72.6698 127.058 63.849 127.499 60.0002C127.035 8.69164 63.2673 -13.6198 30.9573 25.7166C14.8934 44.5939 14.69 75.2424 31.0854 94.4616V94.4625C37.7115 102.523 46.5105 108.513 56.4397 111.722C66.3688 114.929 77.0094 115.221 87.0997 112.561C88.3896 112.213 89.3975 111.204 89.744 109.914C90.0905 108.624 89.7247 107.246 88.783 106.298C87.8414 105.35 86.4662 104.974 85.1736 105.312L85.1741 105.313ZM73.1239 42.6193C67.1349 42.6235 61.2 41.4792 55.6421 39.2492C59.1461 23.2095 66.4117 13.1235 73.1239 13.1235C79.8322 13.1235 87.0919 23.1949 90.5992 39.2513C85.0427 41.4795 79.1107 42.6229 73.1239 42.6188V42.6193ZM107.223 27.8854C104.35 30.9473 101.078 33.6092 97.4934 35.7973C95.9381 28.7483 93.1348 22.0343 89.2174 15.9709C96.0628 18.4913 102.227 22.5709 107.223 27.8854ZM57.0289 15.9707C53.1107 22.0343 50.3083 28.7483 48.7522 35.7971C45.1687 33.609 41.8967 30.9471 39.0232 27.8852C44.0194 22.5707 50.1836 18.4911 57.0289 15.9707ZM34.2889 33.7731C38.0842 37.6712 42.4436 40.9768 47.2222 43.5767C45.6016 54.465 45.615 65.5346 47.2623 76.4181C42.4743 79.0198 38.1033 82.3228 34.2938 86.2183C29.0956 78.4613 26.32 69.3341 26.3191 59.9961C26.3183 50.658 29.0922 41.5307 34.2886 33.7718L34.2889 33.7731ZM39.0159 92.1188C41.8987 89.0569 45.1792 86.3959 48.7693 84.2053C50.2961 91.2441 53.0784 97.9513 56.9842 104.003C50.1495 101.497 43.9965 97.4273 39.0159 92.1188Z" fill="white"/>
<path d="M121.491 88.5578L124.679 85.3721C126.059 83.9641 126.612 81.9418 126.139 80.0276C125.666 78.1132 124.236 76.5806 122.358 75.9771L89.8275 65.8806C88.5125 65.4914 87.1003 65.5902 85.8514 66.1594C84.6034 66.7286 83.6023 67.7297 83.034 68.9777C82.4648 70.2265 82.366 71.6387 82.7561 72.9546L92.8526 105.483V105.482C93.4544 107.36 94.9862 108.791 96.9007 109.264C98.8142 109.738 100.836 109.186 102.245 107.806L105.435 104.618L113.537 112.721L113.536 112.72C114.598 113.778 116.035 114.372 117.532 114.372C119.031 114.372 120.468 113.778 121.529 112.72L129.597 104.653C130.653 103.591 131.246 102.155 131.246 100.657C131.245 99.1598 130.651 97.7236 129.594 96.662L121.491 88.5578ZM117.534 106.11L108.086 96.6613C107.38 95.9632 106.427 95.5723 105.435 95.5714C104.442 95.5714 103.489 95.9632 102.783 96.6604L99.1083 100.335L90.9621 74.085L117.212 82.2313L113.537 85.9067C112.839 86.6124 112.447 87.5649 112.447 88.5577C112.447 89.5504 112.839 90.5038 113.537 91.2094L122.985 100.657L117.534 106.11Z" fill="white"/>
<path d="M73.1247 26.25C71.7979 26.2693 70.58 26.9883 69.9222 28.1409C69.2642 29.2927 69.2642 30.7074 69.9222 31.8598C70.5801 33.0116 71.798 33.7306 73.1247 33.7499C74.4514 33.7306 75.6693 33.0116 76.3272 31.859C76.9851 30.7072 76.9851 29.2925 76.3272 28.1401C75.6692 26.9883 74.4513 26.2692 73.1247 26.25Z" fill="white"/>
</svg>
