<svg width="35" height="35" viewBox="0 0 35 35" fill="none" xmlns="http://www.w3.org/2000/svg">
<path d="M20.7085 3.24335C18.1517 2.3877 15.381 2.4209 12.845 3.33749C10.3095 4.25389 8.15791 5.99999 6.73901 8.29274C5.32026 10.5853 4.71751 13.29 5.02846 15.9682C5.33941 18.6465 6.54606 21.1407 8.45246 23.0472C10.3589 24.9537 12.8535 26.1603 15.5315 26.4712C18.2095 26.7821 20.9145 26.1794 23.207 24.7607C25.4997 23.3419 27.2458 21.1904 28.1622 18.6547C29.0788 16.1191 29.112 13.3482 28.2564 10.7912C27.8761 11.1638 27.3654 11.3732 26.8331 11.3746H22.1663C21.8937 11.3746 21.6237 11.3189 21.3732 11.2113C20.8788 11.0125 20.4868 10.6207 20.2882 10.1262C20.1804 9.87557 20.1247 9.60566 20.1247 9.33301V4.66621C20.1261 4.13396 20.3355 3.62326 20.7081 3.24296L20.7085 3.24335ZM16.9167 13.7083C17.8433 13.7054 18.7146 14.1482 19.2585 14.898C19.8023 15.648 19.9525 16.6138 19.6618 17.4935C19.3712 18.3732 18.6753 19.0595 17.7917 19.338V20.1249C17.7917 20.4376 17.6249 20.7265 17.3542 20.8827C17.0835 21.039 16.7499 21.039 16.4792 20.8827C16.2085 20.7265 16.0417 20.4376 16.0417 20.1249V19.338C15.4589 19.1539 14.9495 18.7894 14.5874 18.297C14.2251 17.8047 14.0286 17.2099 14.0263 16.5988C14.0263 16.2861 14.1931 15.9972 14.4638 15.841C14.7345 15.6847 15.0681 15.6847 15.3388 15.841C15.6095 15.9972 15.7763 16.2861 15.7763 16.5988C15.7763 16.9011 15.8964 17.1914 16.1103 17.4052C16.3241 17.6191 16.6144 17.7392 16.9167 17.7392C17.2193 17.7392 17.5093 17.6191 17.7232 17.4052C17.937 17.1914 18.0574 16.9011 18.0574 16.5988C18.0574 16.2963 17.937 16.0062 17.7232 15.7923C17.5093 15.5785 17.2193 15.4584 16.9167 15.4584C15.9904 15.4611 15.1191 15.0185 14.5751 14.2685C14.0312 13.5185 13.8812 12.5527 14.1718 11.673C14.4622 10.7933 15.1581 10.107 16.0417 9.82846V9.04156C16.0417 8.72906 16.2085 8.44021 16.4792 8.28396C16.7499 8.12752 17.0835 8.12752 17.3542 8.28396C17.6249 8.44021 17.7917 8.72908 17.7917 9.04156V9.82846C18.3747 10.0126 18.8839 10.3771 19.2462 10.8695C19.6085 11.3618 19.805 11.9566 19.8074 12.5677C19.8074 12.8804 19.6406 13.1693 19.3699 13.3255C19.099 13.4818 18.7656 13.4818 18.4949 13.3255C18.224 13.1693 18.0574 12.8804 18.0574 12.5677C18.0572 12.2654 17.937 11.9753 17.7232 11.7615C17.5093 11.5474 17.2193 11.4273 16.9167 11.4273C16.6144 11.4273 16.3241 11.5476 16.1103 11.7615C15.8964 11.9753 15.7763 12.2654 15.7763 12.5679C15.7763 12.8703 15.8964 13.1603 16.1103 13.3742C16.3241 13.588 16.6144 13.7083 16.9167 13.7083Z" fill="white"/>
<path d="M28.548 1.71464L23.0415 7.22115V4.66664C23.0415 4.35414 22.8747 4.06529 22.604 3.90904C22.3333 3.7526 21.9997 3.7526 21.729 3.90904C21.4583 4.06529 21.2915 4.35416 21.2915 4.66664V9.33345C21.2925 9.56509 21.3849 9.78716 21.5489 9.95105C21.7128 10.1151 21.9349 10.2075 22.1665 10.2085H26.8333C27.1458 10.2085 27.4347 10.0417 27.5909 9.77097C27.7474 9.50026 27.7474 9.16667 27.5909 8.89597C27.4347 8.62526 27.1458 8.45847 26.8333 8.45847H24.2788L29.7848 2.95196H29.785C30.0047 2.73067 30.0899 2.40921 30.0088 2.10821C29.9278 1.80704 29.6926 1.57186 29.3915 1.49081C29.0905 1.40976 28.769 1.49492 28.5477 1.71464H28.548Z" fill="white"/>
</svg>
